<svg width="318" height="62" viewBox="0 0 318 62" fill="none" xmlns="http://www.w3.org/2000/svg">
<rect x="275.5" width="42" height="22" rx="11" fill="#BBBBBB"/>
<path d="M287.76 11.22V9.08H288.98C289.16 9.08 289.333 9.09333 289.5 9.12C289.667 9.14667 289.813 9.2 289.94 9.28C290.067 9.35333 290.167 9.46 290.24 9.6C290.32 9.74 290.36 9.92333 290.36 10.15C290.36 10.3767 290.32 10.56 290.24 10.7C290.167 10.84 290.067 10.95 289.94 11.03C289.813 11.1033 289.667 11.1533 289.5 11.18C289.333 11.2067 289.16 11.22 288.98 11.22H287.76ZM286.19 7.86V15H287.76V12.44H289.41C289.857 12.44 290.237 12.3767 290.55 12.25C290.863 12.1167 291.117 11.9433 291.31 11.73C291.51 11.5167 291.653 11.2733 291.74 11C291.833 10.72 291.88 10.4367 291.88 10.15C291.88 9.85667 291.833 9.57333 291.74 9.3C291.653 9.02667 291.51 8.78333 291.31 8.57C291.117 8.35667 290.863 8.18667 290.55 8.06C290.237 7.92667 289.857 7.86 289.41 7.86H286.19ZM294.43 11.09V9.08H296.15C296.51 9.08 296.78 9.16 296.96 9.32C297.14 9.47333 297.23 9.72333 297.23 10.07C297.23 10.43 297.14 10.69 296.96 10.85C296.78 11.01 296.51 11.09 296.15 11.09H294.43ZM292.86 7.86V15H294.43V12.21H296C296.393 12.21 296.677 12.2967 296.85 12.47C297.023 12.6433 297.137 12.9167 297.19 13.29C297.23 13.5767 297.26 13.8767 297.28 14.19C297.3 14.5033 297.353 14.7733 297.44 15H299.01C298.937 14.9 298.88 14.78 298.84 14.64C298.807 14.4933 298.78 14.34 298.76 14.18C298.747 14.02 298.737 13.8633 298.73 13.71C298.723 13.5567 298.717 13.4233 298.71 13.31C298.697 13.13 298.67 12.95 298.63 12.77C298.597 12.59 298.54 12.4267 298.46 12.28C298.38 12.1267 298.277 11.9967 298.15 11.89C298.023 11.7767 297.863 11.6933 297.67 11.64V11.62C298.07 11.46 298.357 11.2267 298.53 10.92C298.71 10.6133 298.8 10.25 298.8 9.83C298.8 9.55667 298.75 9.30333 298.65 9.07C298.557 8.83 298.417 8.62 298.23 8.44C298.05 8.26 297.83 8.12 297.57 8.02C297.317 7.91333 297.03 7.86 296.71 7.86H292.86ZM301.337 11.46C301.337 11.1467 301.37 10.8433 301.437 10.55C301.51 10.2567 301.623 9.99667 301.777 9.77C301.93 9.53667 302.13 9.35333 302.377 9.22C302.623 9.08 302.923 9.01 303.277 9.01C303.63 9.01 303.93 9.08 304.177 9.22C304.423 9.35333 304.623 9.53667 304.777 9.77C304.93 9.99667 305.04 10.2567 305.107 10.55C305.18 10.8433 305.217 11.1467 305.217 11.46C305.217 11.76 305.18 12.0533 305.107 12.34C305.04 12.62 304.93 12.8733 304.777 13.1C304.623 13.3267 304.423 13.51 304.177 13.65C303.93 13.7833 303.63 13.85 303.277 13.85C302.923 13.85 302.623 13.7833 302.377 13.65C302.13 13.51 301.93 13.3267 301.777 13.1C301.623 12.8733 301.51 12.62 301.437 12.34C301.37 12.0533 301.337 11.76 301.337 11.46ZM299.767 11.46C299.767 11.98 299.847 12.4667 300.007 12.92C300.167 13.3667 300.397 13.7567 300.697 14.09C300.997 14.4233 301.363 14.6867 301.797 14.88C302.237 15.0667 302.73 15.16 303.277 15.16C303.83 15.16 304.323 15.0667 304.757 14.88C305.19 14.6867 305.557 14.4233 305.857 14.09C306.157 13.7567 306.387 13.3667 306.547 12.92C306.707 12.4667 306.787 11.98 306.787 11.46C306.787 10.9267 306.707 10.4333 306.547 9.98C306.387 9.52 306.157 9.12 305.857 8.78C305.557 8.44 305.19 8.17333 304.757 7.98C304.323 7.78667 303.83 7.69 303.277 7.69C302.73 7.69 302.237 7.78667 301.797 7.98C301.363 8.17333 300.997 8.44 300.697 8.78C300.397 9.12 300.167 9.52 300.007 9.98C299.847 10.4333 299.767 10.9267 299.767 11.46Z" fill="white"/>
<path d="M3.85156 14.4688H29.3047V24.5234H24.5V18.5234H11.8203V29.9375H24.0312V33.875H11.8203V45.9688H15.3828V50H3.85156V45.9688H7.22656V18.5234H3.85156V14.4688ZM29.0469 37.8594C29.0625 35.9375 29.3672 34.1875 29.9609 32.6094C30.5703 31.0312 31.4141 29.6797 32.4922 28.5547C33.5703 27.4141 34.8516 26.5391 36.3359 25.9297C37.8203 25.3203 39.4531 25.0156 41.2344 25.0156C43.0312 25.0156 44.6719 25.3203 46.1562 25.9297C47.6562 26.5391 48.9375 27.4062 50 28.5312C51.0625 29.6406 51.8906 30.9844 52.4844 32.5625C53.0781 34.1406 53.375 35.8906 53.375 37.8125C53.375 39.7031 53.0781 41.4453 52.4844 43.0391C51.8906 44.6172 51.0625 45.9766 50 47.1172C48.9375 48.2578 47.6562 49.1484 46.1562 49.7891C44.6719 50.4141 43.0312 50.7266 41.2344 50.7266C39.4062 50.7266 37.75 50.4141 36.2656 49.7891C34.7812 49.1641 33.5078 48.2891 32.4453 47.1641C31.3828 46.0234 30.5547 44.6641 29.9609 43.0859C29.3672 41.5078 29.0625 39.7656 29.0469 37.8594ZM33.6641 37.8594C33.6641 39.25 33.8594 40.5078 34.25 41.6328C34.6562 42.7578 35.2031 43.7188 35.8906 44.5156C36.5938 45.2969 37.3984 45.9062 38.3047 46.3438C39.2266 46.7656 40.2031 46.9766 41.2344 46.9766C42.3125 46.9766 43.3125 46.7656 44.2344 46.3438C45.1719 45.9219 45.9844 45.3203 46.6719 44.5391C47.3594 43.7422 47.8984 42.7812 48.2891 41.6562C48.6797 40.5312 48.875 39.2656 48.875 37.8594C48.875 36.3906 48.6797 35.0859 48.2891 33.9453C47.8984 32.8047 47.3594 31.8516 46.6719 31.0859C46 30.3203 45.1953 29.7422 44.2578 29.3516C43.3203 28.9609 42.3125 28.7656 41.2344 28.7656C40.2031 28.7656 39.2266 28.9609 38.3047 29.3516C37.3984 29.7422 36.5938 30.3203 35.8906 31.0859C35.2031 31.8516 34.6562 32.8047 34.25 33.9453C33.8594 35.0859 33.6641 36.3906 33.6641 37.8594ZM75.5703 30.8516H71.1172V29.3516C70.6016 29.3516 70.0703 29.4531 69.5234 29.6562C68.9922 29.8438 68.4922 30.1406 68.0234 30.5469C67.5547 30.9375 67.1406 31.4453 66.7812 32.0703C66.4375 32.6797 66.1875 33.4062 66.0312 34.25V45.9688H70.1562V50H58.1094V45.9688H61.4609L61.4844 29.75H58.1094V25.7188H65.8672V29.0703C66.1484 28.5703 66.4609 28.1094 66.8047 27.6875C67.1641 27.25 67.5547 26.875 67.9766 26.5625C68.4141 26.2344 68.8906 25.9844 69.4062 25.8125C69.9375 25.625 70.5078 25.5312 71.1172 25.5312C71.9297 25.5312 72.6953 25.5312 73.4141 25.5312C74.1328 25.5312 74.8516 25.5469 75.5703 25.5781V30.8516ZM80.6094 25.7188H88.3438V28.5547H88.3906C88.9219 28.1016 89.4766 27.6797 90.0547 27.2891C90.6484 26.8828 91.2656 26.5312 91.9062 26.2344C92.5469 25.9375 93.2109 25.7031 93.8984 25.5312C94.6016 25.3594 95.3281 25.2734 96.0781 25.2734C97.8281 25.2734 99.3359 25.6016 100.602 26.2578C101.867 26.8984 102.844 27.9062 103.531 29.2812C104.125 28.75 104.75 28.2422 105.406 27.7578C106.062 27.2578 106.742 26.8281 107.445 26.4688C108.164 26.1094 108.914 25.8203 109.695 25.6016C110.477 25.3828 111.289 25.2734 112.133 25.2734C113.445 25.2734 114.625 25.4531 115.672 25.8125C116.719 26.1719 117.609 26.7188 118.344 27.4531C119.078 28.1875 119.633 29.1328 120.008 30.2891C120.398 31.4297 120.594 32.7812 120.594 34.3438V45.9688H123.969V50H112.625V45.9688H116.047V34.8828C116.047 33.0234 115.578 31.6172 114.641 30.6641C113.703 29.6953 112.352 29.2109 110.586 29.2109C109.539 29.2109 108.469 29.4609 107.375 29.9609C106.281 30.4609 105.344 31.0938 104.562 31.8594V45.9688H107.914V50H96.5938V45.9688H100.016V34.8828C100.016 33.0234 99.5391 31.6172 98.5859 30.6641C97.6484 29.6953 96.2969 29.2109 94.5312 29.2109C93.5156 29.2109 92.4922 29.4531 91.4609 29.9375C90.4297 30.4219 89.4531 31.0234 88.5312 31.7422V45.9688H91.9531V50H80.6094V45.9688H83.9844V29.75H80.6094V25.7188ZM140.164 14.4688H154.531C156.125 14.4688 157.586 14.6797 158.914 15.1016C160.258 15.5078 161.414 16.1172 162.383 16.9297C163.367 17.7266 164.125 18.7266 164.656 19.9297C165.203 21.1328 165.477 22.5156 165.477 24.0781C165.477 25.375 165.211 26.6016 164.68 27.7578C164.148 28.8984 163.398 29.8984 162.43 30.7578C161.461 31.6172 160.297 32.2969 158.938 32.7969C157.594 33.2969 156.094 33.5469 154.438 33.5469H148.133V45.9688H151.695V50H140.164V45.9688H143.539V18.5234H140.164V14.4688ZM148.133 18.5234V29.7031H154.531C155.422 29.7031 156.234 29.5859 156.969 29.3516C157.719 29.1016 158.359 28.7422 158.891 28.2734C159.438 27.8047 159.859 27.2188 160.156 26.5156C160.469 25.8125 160.625 25 160.625 24.0781C160.625 22.3281 160.094 20.9688 159.031 20C157.969 19.0156 156.273 18.5234 153.945 18.5234H148.133ZM181.461 47.75C180.539 48.6094 179.516 49.3125 178.391 49.8594C177.281 50.4062 176.016 50.6797 174.594 50.6797C173.406 50.6797 172.312 50.4922 171.312 50.1172C170.328 49.7422 169.477 49.2344 168.758 48.5938C168.039 47.9375 167.477 47.1797 167.07 46.3203C166.68 45.4609 166.484 44.5469 166.484 43.5781C166.484 42.5469 166.633 41.6328 166.93 40.8359C167.242 40.0391 167.648 39.3516 168.148 38.7734C168.664 38.1797 169.258 37.6875 169.93 37.2969C170.617 36.8906 171.328 36.5703 172.062 36.3359C172.812 36.0859 173.57 35.9141 174.336 35.8203C175.117 35.7109 175.859 35.6562 176.562 35.6562C177.688 35.6562 178.633 35.6953 179.398 35.7734C180.164 35.8359 180.859 35.9297 181.484 36.0547L181.508 34.0625C181.508 33.2031 181.383 32.4609 181.133 31.8359C180.883 31.1953 180.531 30.6719 180.078 30.2656C179.625 29.8438 179.078 29.5312 178.438 29.3281C177.812 29.125 177.109 29.0234 176.328 29.0234C175.594 29.0234 174.891 29.0781 174.219 29.1875C173.547 29.2812 172.914 29.4141 172.32 29.5859C171.742 29.7422 171.203 29.9297 170.703 30.1484C170.219 30.3516 169.805 30.5703 169.461 30.8047L168.031 27.7812C168.609 27.4062 169.242 27.0625 169.93 26.75C170.617 26.4219 171.336 26.1484 172.086 25.9297C172.852 25.6953 173.625 25.5156 174.406 25.3906C175.203 25.25 175.984 25.1797 176.75 25.1797C178.156 25.1797 179.422 25.3516 180.547 25.6953C181.672 26.0234 182.625 26.5391 183.406 27.2422C184.188 27.9453 184.789 28.8438 185.211 29.9375C185.633 31.0156 185.844 32.3125 185.844 33.8281L185.82 45.9688H188.516V50H181.461V47.75ZM175.555 47.0234C176.133 47.0234 176.711 46.9531 177.289 46.8125C177.867 46.6719 178.414 46.4844 178.93 46.25C179.445 46 179.922 45.7188 180.359 45.4062C180.797 45.0781 181.164 44.7422 181.461 44.3984L181.484 38.9141H176.422C175.578 38.9141 174.805 39.0078 174.102 39.1953C173.414 39.3828 172.812 39.6562 172.297 40.0156C171.797 40.375 171.406 40.8203 171.125 41.3516C170.844 41.8828 170.703 42.4922 170.703 43.1797C170.703 43.8203 170.82 44.3828 171.055 44.8672C171.289 45.3359 171.617 45.7344 172.039 46.0625C172.477 46.375 172.992 46.6172 173.586 46.7891C174.18 46.9453 174.836 47.0234 175.555 47.0234ZM211.203 47.8672C210.406 48.7109 209.477 49.3672 208.414 49.8359C207.367 50.3047 206.172 50.5391 204.828 50.5391C203.188 50.5391 201.656 50.2578 200.234 49.6953C198.828 49.1172 197.602 48.2812 196.555 47.1875C195.523 46.0781 194.711 44.7266 194.117 43.1328C193.539 41.5234 193.25 39.6875 193.25 37.625C193.25 35.75 193.531 34.0469 194.094 32.5156C194.656 30.9688 195.453 29.6562 196.484 28.5781C197.516 27.4844 198.758 26.6406 200.211 26.0469C201.664 25.4375 203.281 25.1328 205.062 25.1328C206.281 25.1328 207.375 25.2734 208.344 25.5547C209.328 25.8203 210.281 26.2891 211.203 26.9609V25.7188H215.562V49.0391C215.562 52.8828 214.648 55.7891 212.82 57.7578C211.008 59.7266 208.18 60.7109 204.336 60.7109C203.492 60.7109 202.609 60.6484 201.688 60.5234C200.766 60.3984 199.852 60.1953 198.945 59.9141C198.055 59.6484 197.18 59.3047 196.32 58.8828C195.477 58.4609 194.695 57.9453 193.977 57.3359L196.32 53.7969C196.789 54.2031 197.32 54.5781 197.914 54.9219C198.523 55.2656 199.172 55.5547 199.859 55.7891C200.547 56.0391 201.258 56.2344 201.992 56.375C202.727 56.5156 203.461 56.5859 204.195 56.5859C205.398 56.5859 206.438 56.4609 207.312 56.2109C208.203 55.9609 208.93 55.5156 209.492 54.875C210.07 54.25 210.5 53.3984 210.781 52.3203C211.062 51.2422 211.203 49.875 211.203 48.2188V47.8672ZM205.391 46.7422C206.109 46.7422 206.766 46.6719 207.359 46.5312C207.953 46.3906 208.492 46.2109 208.977 45.9922C209.461 45.7578 209.883 45.4922 210.242 45.1953C210.617 44.8984 210.938 44.5859 211.203 44.2578V30.9688C210.406 30.2656 209.484 29.7578 208.438 29.4453C207.406 29.1328 206.344 28.9766 205.25 28.9766C204.219 28.9766 203.25 29.1719 202.344 29.5625C201.438 29.9375 200.641 30.4922 199.953 31.2266C199.281 31.9609 198.75 32.8594 198.359 33.9219C197.969 34.9844 197.773 36.2031 197.773 37.5781C197.773 39.0781 197.961 40.3984 198.336 41.5391C198.711 42.6797 199.234 43.6406 199.906 44.4219C200.578 45.1875 201.383 45.7656 202.32 46.1562C203.258 46.5469 204.281 46.7422 205.391 46.7422ZM225.688 38.4219C225.688 39.1094 225.734 39.7422 225.828 40.3203C225.938 40.8828 226.086 41.4219 226.273 41.9375C226.852 43.5 227.773 44.6797 229.039 45.4766C230.32 46.2578 231.766 46.6484 233.375 46.6484C234.641 46.6484 235.867 46.4766 237.055 46.1328C238.258 45.7734 239.516 45.2188 240.828 44.4688L242.586 47.4453C240.992 48.5391 239.391 49.3516 237.781 49.8828C236.172 50.4141 234.5 50.6797 232.766 50.6797C231.125 50.6797 229.602 50.4062 228.195 49.8594C226.805 49.3125 225.602 48.5 224.586 47.4219C223.586 46.3438 222.797 45 222.219 43.3906C221.656 41.7812 221.375 39.9062 221.375 37.7656C221.375 36.0312 221.617 34.3984 222.102 32.8672C222.586 31.3203 223.305 29.9766 224.258 28.8359C225.227 27.6797 226.422 26.7656 227.844 26.0938C229.266 25.4219 230.922 25.0859 232.812 25.0859C234.641 25.0859 236.164 25.3672 237.383 25.9297C238.617 26.4766 239.617 27.2109 240.383 28.1328C241.164 29.0391 241.75 30.0781 242.141 31.25C242.547 32.4219 242.828 33.6172 242.984 34.8359C243.062 35.4297 243.109 36.0312 243.125 36.6406C243.156 37.25 243.172 37.8438 243.172 38.4219H225.688ZM232.508 28.7422C231.492 28.7422 230.602 28.8906 229.836 29.1875C229.086 29.4688 228.445 29.8828 227.914 30.4297C227.383 30.9609 226.953 31.6172 226.625 32.3984C226.312 33.1797 226.078 34.0547 225.922 35.0234H238.508C238.445 34.1172 238.297 33.2812 238.062 32.5156C237.844 31.75 237.5 31.0859 237.031 30.5234C236.562 29.9609 235.961 29.5234 235.227 29.2109C234.492 28.8984 233.586 28.7422 232.508 28.7422ZM263.141 32.2344C263.141 31.5781 262.984 31.0234 262.672 30.5703C262.375 30.1016 261.984 29.7266 261.5 29.4453C261.016 29.1484 260.477 28.9375 259.883 28.8125C259.289 28.6719 258.711 28.6016 258.148 28.6016C257.523 28.6016 256.945 28.6719 256.414 28.8125C255.898 28.9531 255.453 29.1562 255.078 29.4219C254.703 29.6875 254.406 30.0156 254.188 30.4062C253.984 30.7812 253.883 31.2031 253.883 31.6719C253.883 32.4844 254.125 33.1328 254.609 33.6172C255.109 34.0859 255.938 34.5234 257.094 34.9297L261.758 36.5703C263.758 37.2422 265.219 38.1562 266.141 39.3125C267.062 40.4688 267.523 41.8516 267.523 43.4609C267.523 44.5391 267.305 45.5312 266.867 46.4375C266.445 47.3281 265.836 48.0938 265.039 48.7344C264.258 49.3594 263.312 49.8438 262.203 50.1875C261.094 50.5469 259.859 50.7266 258.5 50.7266C256.609 50.7266 255.07 50.4219 253.883 49.8125C252.695 49.2031 251.781 48.3984 251.141 47.3984H248.703V43.3672H253.555C253.555 44.0391 253.695 44.6172 253.977 45.1016C254.273 45.5703 254.656 45.9531 255.125 46.25C255.609 46.5469 256.148 46.7656 256.742 46.9062C257.352 47.0469 257.969 47.1172 258.594 47.1172C259.203 47.1172 259.789 47.0469 260.352 46.9062C260.914 46.75 261.406 46.5312 261.828 46.25C262.266 45.9531 262.609 45.6016 262.859 45.1953C263.109 44.7891 263.234 44.3281 263.234 43.8125C263.234 43.0312 262.977 42.3672 262.461 41.8203C261.961 41.2734 261.102 40.7812 259.883 40.3438L255.242 38.6094C253.352 37.9375 251.945 37.0859 251.023 36.0547C250.117 35.0078 249.664 33.7031 249.664 32.1406C249.664 31.1094 249.852 30.1562 250.227 29.2812C250.617 28.4062 251.172 27.6562 251.891 27.0312C252.625 26.3906 253.516 25.8906 254.562 25.5312C255.609 25.1719 256.805 24.9922 258.148 24.9922C259.883 24.9922 261.336 25.2344 262.508 25.7188C263.68 26.2031 264.734 27.0312 265.672 28.2031H267.945V32.2344H263.141Z" fill="#444444"/>
</svg>
